<svg xmlns="http://www.w3.org/2000/svg" viewBox="0 0 1290.83 595.22"><defs><style>.cls-1,.cls-11{fill:#ef4223;}.cls-1{opacity:0.1;}.cls-2{fill:#181333;}.cls-3{fill:#c4b8ff;}.cls-4{fill:#ab9af7;}.cls-5{fill:#ff988a;}.cls-6{fill:#ff95a9;}.cls-7{fill:#7760db;}.cls-8{fill:none;}.cls-9{fill:#2fc2a7;}.cls-10{fill:#ddd6ff;}.cls-12{fill:#ff809f;}.cls-13{fill:#40327a;}.cls-14{fill:#61addb;}.cls-15{fill:#ad422d;}.cls-16{fill:#fff;}.cls-17{fill:#ffc359;}.cls-18{fill:#0f8754;}</style></defs><title>1</title><g id="Layer_2" data-name="Layer 2"><g id="Ñëîé_1" data-name="Ñëîé 1"><path class="cls-1" d="M108.12,564s-158-70.23-92-137.3,290.65-63,271.65-137.79-66.15-99.81-35.55-156.54c36.73-68.1,144.2-12.84,196.24,11,96.76,44.33,204,49.25,166.82-12.75s-76.44-85.66-41.16-121c48-48.08,254.07,93,367.07,232.39,67.64,83.43,116.93,25.38,110.08-28.22-4.35-34.06-52.26-104.35-2-136.17,48.44-30.66,161.58,64.37,200,123.05C1349.91,354.29,1236.12,564,1236.12,564Z"/><polygon class="cls-2" points="831.1 303.06 828.88 350.64 828.88 350.65 828.61 356.49 828.19 365.56 827.91 371.56 731.91 371.56 732.19 365.56 735.1 303.06 831.1 303.06"/><polygon class="cls-3" points="828.19 365.56 827.91 371.56 687.79 371.56 687.79 365.56 828.19 365.56"/><polygon class="cls-2" points="828.88 350.65 828.61 356.49 828.19 365.56 733.16 365.56 736.43 365.05 828.88 350.65"/><polygon class="cls-4" points="727.04 437.01 785.79 437.21 786.7 414.12 728.12 409.75 727.04 437.01"/><polygon class="cls-5" points="779.63 344.57 702.39 359.7 703.53 371.59 707.59 371.59 713.58 371.59 782.23 371.61 779.63 344.57"/><polygon class="cls-6" points="703.53 371.58 702.38 359.69 707.59 358.68 707.59 371.58 703.53 371.58"/><path class="cls-6" d="M724.12,279.16H690.94V242.82a20,20,0,0,1,20-20h0c10.68,0,20.39,8.38,20.9,19.05l1.35,27.77A9.09,9.09,0,0,1,724.12,279.16Z"/><path class="cls-5" d="M733.2,269.64a9.09,9.09,0,0,1-9.08,9.52H690.94V242.83a20,20,0,0,1,20-20,22.22,22.22,0,0,1,14.7,5.53,19.92,19.92,0,0,1,6.19,13.51Z"/><path class="cls-7" d="M737.32,225.44v10.8a9.61,9.61,0,0,1-.3,2.42H716.68V214.53h9.73A10.9,10.9,0,0,1,737.32,225.44Z"/><path class="cls-8" d="M732.69,259.12l-.84-17.27Z"/><path class="cls-2" d="M699.12,219.39h2.72a0,0,0,0,1,0,0v34.21a0,0,0,0,1,0,0h-20.9a0,0,0,0,1,0,0v-16A18.18,18.18,0,0,1,699.12,219.39Z"/><path class="cls-2" d="M734.71,236.35H713.09A15.33,15.33,0,0,1,697.79,221a7.27,7.27,0,0,1,14.54,0,.77.77,0,0,0,.76.77h21.62Z"/><path class="cls-2" d="M727,229.07H715.77a7.27,7.27,0,1,1,0-14.54H727a7.27,7.27,0,0,1,0,14.54Z"/><path class="cls-2" d="M743.22,233.17a11,11,0,0,1-11,11c-6.06,0-11.78-4.91-11.78-11s5.72-11,11.78-11A11,11,0,0,1,743.22,233.17Z"/><rect class="cls-2" x="696.91" y="230.63" width="30.29" height="11.36"/><rect class="cls-2" x="697.78" y="241.84" width="23.4" height="14.49"/><path class="cls-2" d="M680.94,250.88h34.78a0,0,0,0,1,0,0v9.79a9.26,9.26,0,0,1-9.26,9.26h-13.1a12.43,12.43,0,0,1-12.43-12.43v-6.62A0,0,0,0,1,680.94,250.88Z"/><path class="cls-5" d="M703.44,307.86h0a12.5,12.5,0,0,1-12.5-12.5V269.92h25v25.44A12.49,12.49,0,0,1,703.44,307.86Z"/><path class="cls-6" d="M721.18,261.79h5.45V250.88h-5.45a5.45,5.45,0,0,0-5.45,5.45h0A5.45,5.45,0,0,0,721.18,261.79Z"/><path class="cls-2" d="M715.73,237.84h13.56a0,0,0,0,1,0,0v5.77a7.28,7.28,0,0,1-7.28,7.28h-6.28a0,0,0,0,1,0,0v-13A0,0,0,0,1,715.73,237.84Z"/><circle class="cls-5" cx="703.44" cy="295.36" r="12.5"/><circle class="cls-9" cx="772.71" cy="552.98" r="8.44" transform="translate(-121.53 231.74) rotate(-15.83)"/><circle class="cls-4" cx="785.83" cy="425.65" r="11.57" transform="translate(-76.77 191.93) rotate(-13.28)"/><polygon class="cls-4" points="764.29 552.32 774.29 424.99 797.35 426.8 781.12 553.64 764.29 552.32"/><path class="cls-2" d="M789.65,563H764.27V553h16.89l9.7,5.29a2.51,2.51,0,0,1,1.3,2.2h0A2.51,2.51,0,0,1,789.65,563Z"/><circle class="cls-4" cx="723.51" cy="552.98" r="8.44" transform="translate(-107.69 181.02) rotate(-13.28)"/><circle class="cls-4" cx="736.62" cy="425.65" r="11.57" transform="translate(-75.42 171.92) rotate(-12.67)"/><polygon class="cls-4" points="715.08 552.32 725.08 424.99 748.14 426.8 731.91 553.64 715.08 552.32"/><path class="cls-2" d="M740.45,563H715.07V553H732l9.69,5.29a2.5,2.5,0,0,1,1.31,2.2h0A2.51,2.51,0,0,1,740.45,563Z"/><polygon class="cls-10" points="1028.58 411.57 984.64 562.98 979.59 562.98 1015.52 411.57 1028.58 411.57"/><polygon class="cls-10" points="1074.53 411.57 1118.47 562.98 1123.52 562.98 1087.59 411.57 1074.53 411.57"/><circle class="cls-11" cx="1051.56" cy="389.97" r="74"/><path class="cls-12" d="M1122.78,413.54l-1.9-.63a73,73,0,0,0,2.88-12.13l2,.3A75,75,0,0,1,1122.78,413.54Z"/><path class="cls-12" d="M1051.56,465a74.17,74.17,0,0,1-34-8.15l.91-1.78a72.13,72.13,0,0,0,33.13,7.93,73.08,73.08,0,0,0,66.8-43.52l1.83.81A75.07,75.07,0,0,1,1051.56,465Z"/><circle class="cls-4" cx="1041.23" cy="383.67" r="23.25"/><path class="cls-6" d="M909.62,362.4a5,5,0,1,1,6.42,3A5,5,0,0,1,909.62,362.4Z"/><circle class="cls-4" cx="1027.59" cy="310.35" r="13"/><path class="cls-6" d="M902.2,355.94h0a6.9,6.9,0,0,0-2.26.43,7,7,0,1,0,4.84,13.13L916,365.36l-1.84-9.69Z"/><circle class="cls-6" cx="977.33" cy="332.68" r="9.45" transform="translate(452.71 1221.85) rotate(-78.26)"/><polygon class="cls-5" points="1021.54 298.84 972.93 324.32 980.6 341.54 1032.09 322.55 1021.54 298.84"/><polygon class="cls-6" points="972.93 324.32 911.99 356.24 916.04 365.36 980.6 341.54 972.93 324.32"/><circle class="cls-13" cx="1004.81" cy="553.98" r="6.5"/><path class="cls-10" d="M1014.61,311l3.36,72.72h46.51l19.21-76.37a8,8,0,0,0-7.76-9.95h-48.34A13,13,0,0,0,1014.61,311Z"/><circle class="cls-10" cx="1027.59" cy="310.35" r="13" transform="translate(-33.92 469.9) rotate(-25.35)"/><path class="cls-2" d="M1018,383.67h46.51l2.5,1.95A34.63,34.63,0,0,1,1080.36,413v10a14,14,0,0,1-14,14H1026a14,14,0,0,1-14-14V409.27A57.71,57.71,0,0,1,1018,383.67Z"/><path class="cls-10" d="M1039.75,315,1030,340.67l-.21-.08a12.86,12.86,0,1,1-24-9.1l-.07,0,9.73-25.72Z"/><circle class="cls-10" cx="1075.53" cy="310.35" r="13" transform="translate(126.59 904.15) rotate(-48.13)"/><circle class="cls-5" cx="1094.22" cy="362.07" r="9.45" transform="translate(119.6 977.32) rotate(-50.57)"/><polygon class="cls-5" points="1088.02 306.75 1103.3 359.45 1085.57 365.85 1063.61 315.55 1088.02 306.75"/><polygon class="cls-10" points="1063.61 315.55 1077.92 348.35 1097.98 341.11 1088.02 306.75 1063.61 315.55"/><polygon class="cls-10" points="1032.09 322.55 998.52 334.93 989.85 315.46 1021.54 298.84 1032.09 322.55"/><circle class="cls-2" cx="1025.98" cy="422.96" r="14"/><circle class="cls-2" cx="1066.36" cy="422.96" r="14"/><path class="cls-7" d="M998.31,554h13v9H993.09a2.78,2.78,0,0,1-2.78-2.79h0a2.77,2.77,0,0,1,1.39-2.41Z"/><circle class="cls-2" cx="980" cy="425.65" r="11.31"/><polygon class="cls-2" points="968.88 428.13 998.38 554.98 1011.23 552.98 991.23 424.65 968.88 428.13"/><circle class="cls-13" cx="1037.53" cy="553.98" r="6.5"/><path class="cls-7" d="M1031,554h13v9h-18.21a2.79,2.79,0,0,1-2.79-2.79h0a2.76,2.76,0,0,1,1.4-2.41Z"/><circle class="cls-13" cx="1012.72" cy="425.65" r="11.31"/><polygon class="cls-2" points="1001.6 428.13 1031.11 554.98 1043.95 552.98 1023.95 424.65 1001.6 428.13"/><rect class="cls-5" x="1033.27" y="270.26" width="22" height="27.09"/><circle class="cls-5" cx="1044.27" cy="297.35" r="11"/><circle class="cls-2" cx="1064.07" cy="267.37" r="15.66" transform="translate(-29.09 173.9) rotate(-9.22)"/><path class="cls-2" d="M1005.16,246.85a34.56,34.56,0,1,1,34.56,34.56L1022.1,263.8a16.94,16.94,0,0,1-16.94-17Z"/><path class="cls-5" d="M1056.27,263.91h-5v-10h5a5,5,0,0,1,5,5h0A5,5,0,0,1,1056.27,263.91Z"/><path class="cls-5" d="M1017.69,234.9h37.58v48.51h-23.34a16.22,16.22,0,0,1-16.18-17.21Z"/><path class="cls-2" d="M1055.27,253.91h1V225H1026.5a14.23,14.23,0,0,0-14.23,14.23v.57h1a39.07,39.07,0,0,1,23.59,7.91h0a30.58,30.58,0,0,0,18.41,6.17Z"/><polygon class="cls-10" points="434.04 411.57 477.98 562.98 483.03 562.98 447.1 411.57 434.04 411.57"/><polygon class="cls-10" points="388.09 411.57 344.15 562.98 339.1 562.98 375.03 411.57 388.09 411.57"/><circle class="cls-11" cx="411.07" cy="389.97" r="74"/><path class="cls-13" d="M447.53,409.71a36.42,36.42,0,0,1-2.64,13.65H377.25a36.46,36.46,0,1,1,70.28-13.65Z"/><circle class="cls-13" cx="411.07" cy="409.71" r="10"/><circle class="cls-7" cx="493.02" cy="351.76" r="13.64" transform="translate(-81.27 159.43) rotate(-16.99)"/><polygon class="cls-14" points="428.74 333.02 486.61 363.81 501.63 341.18 450.76 299.85 428.74 333.02"/><circle class="cls-14" cx="438.13" cy="315.36" r="20" transform="translate(-34 577.1) rotate(-64.75)"/><polygon class="cls-14" points="395.38 331.81 341.49 369.13 323.94 348.41 369.64 301.43 395.38 331.81"/><circle class="cls-14" cx="384" cy="315.36" r="20" transform="translate(-17.31 22.34) rotate(-3.26)"/><circle class="cls-13" cx="388.91" cy="423.36" r="13.65"/><circle class="cls-13" cx="433.2" cy="423.36" r="13.65"/><path class="cls-14" d="M452.42,310.05l-4.89,99.66H374.61l-4.89-99.66a14,14,0,0,1,14-14.69h54.73A14,14,0,0,1,452.42,310.05Z"/><path class="cls-2" d="M447.53,409.71l-.67,13.65,0,.67a13.64,13.64,0,0,1-13.63,13H388.94a13.65,13.65,0,0,1-13.63-13l0-.67-.67-13.65Z"/><circle class="cls-13" cx="438.49" cy="552.98" r="8.44" transform="matrix(0.16, -0.99, 0.99, 0.16, -176.39, 899.36)"/><circle class="cls-13" cx="435.38" cy="425.65" r="11.57" transform="translate(-78.91 751.59) rotate(-76.72)"/><polygon class="cls-2" points="430.06 552.98 423.81 425.65 446.94 425.65 446.94 552.98 430.06 552.98"/><path class="cls-5" d="M455.43,563H430.05V553h16.89l9.69,5.29a2.5,2.5,0,0,1,1.31,2.2h0A2.51,2.51,0,0,1,455.43,563Z"/><path class="cls-13" d="M494.26,435.8a8.44,8.44,0,1,1-10.78,5.12A8.44,8.44,0,0,1,494.26,435.8Z"/><path class="cls-2" d="M374.31,393.09a11.57,11.57,0,1,1-14.77,7A11.56,11.56,0,0,1,374.31,393.09Z"/><polygon class="cls-2" points="488.61 451.69 366.55 414.88 374.31 393.08 494.27 435.79 488.61 451.69"/><path class="cls-5" d="M495.17,463.07l8.51-23.91-9.42-3.36-5.66,15.91,1.73,10.91a2.5,2.5,0,0,0,1.64,2h0A2.51,2.51,0,0,0,495.17,463.07Z"/><rect class="cls-5" x="400.85" y="268.3" width="25" height="27.09" transform="translate(16.99 -23.44) rotate(3.32)"/><circle class="cls-5" cx="412.56" cy="295.36" r="12.5" transform="matrix(0.26, -0.97, 0.97, 0.26, 21.01, 618.07)"/><polygon class="cls-2" points="378.33 431.98 361.47 411.3 378.16 395.37 398.03 413.2 378.33 431.98"/><polygon class="cls-10" points="300.77 371.57 299.72 381.57 279.83 562.98 274.78 562.98 289.71 371.57 300.77 371.57"/><polygon class="cls-10" points="1172.73 371.57 1173.78 381.57 1193.67 562.98 1198.72 562.98 1183.79 371.57 1172.73 371.57"/><rect class="cls-15" x="278.93" y="371.57" width="913.86" height="10"/><path class="cls-14" d="M347.11,360.54a13.64,13.64,0,1,1-10.76-16A13.64,13.64,0,0,1,347.11,360.54Z"/><rect class="cls-2" x="421.36" y="365.57" width="48" height="6"/><polygon class="cls-3" points="564.68 303.07 562.19 356.5 561.49 371.57 465.49 371.57 468.68 303.07 564.68 303.07"/><path class="cls-16" d="M522.08,337.32a7.41,7.41,0,0,1-7.33,7,6.62,6.62,0,0,1-6.67-7,7.4,7.4,0,0,1,7.32-7A6.62,6.62,0,0,1,522.08,337.32Z"/><polygon class="cls-10" points="562.19 356.5 561.49 371.57 465.49 371.57 562.19 356.5"/><rect class="cls-2" x="986.92" y="365.57" width="48" height="6" transform="translate(2021.83 737.14) rotate(180)"/><polygon class="cls-3" points="990.79 371.57 894.79 371.57 894.78 371.46 894.09 356.5 891.6 303.07 987.6 303.07 990.09 356.61 990.79 371.57"/><ellipse class="cls-16" cx="941.2" cy="337.32" rx="6.84" ry="7.17" transform="translate(42.19 774.83) rotate(-45.67)"/><polygon class="cls-10" points="990.79 371.57 894.09 371.57 894.78 371.46 990.09 356.61 990.79 371.57"/><path class="cls-2" d="M439.93,249.14l-3.63.29-2-24.46,3.63-.29a12.27,12.27,0,0,1,13.21,11.24h0A12.26,12.26,0,0,1,439.93,249.14Z"/><path class="cls-2" d="M393.09,256.36h18.18a0,0,0,0,1,0,0v19a0,0,0,0,1,0,0h-9.09a9.09,9.09,0,0,1-9.09-9.09v-10A0,0,0,0,1,393.09,256.36Z" transform="translate(-20.04 33.14) rotate(-4.6)"/><path class="cls-2" d="M426.29,217.18h8.82A10.91,10.91,0,0,1,446,228.09V238.9a9.86,9.86,0,0,1-9.86,9.86h-9.87a0,0,0,0,1,0,0V217.18a0,0,0,0,1,0,0Z" transform="translate(-17.29 35.76) rotate(-4.6)"/><path class="cls-5" d="M436.75,281.92l-32.16,2.59-2.92-36.22A20,20,0,0,1,420,226.73h0a20,20,0,0,1,21.46,17.38L445,271.69A9.1,9.1,0,0,1,436.75,281.92Z"/><path class="cls-8" d="M443.68,261.25l-2.22-17.14Z"/><path class="cls-2" d="M409.34,224.84h2.72a0,0,0,0,1,0,0v34.21a0,0,0,0,1,0,0h-20.9a0,0,0,0,1,0,0V243A18.18,18.18,0,0,1,409.34,224.84Z" transform="translate(-18.12 33.02) rotate(-4.6)"/><path class="cls-5" d="M402.81,262.43l5.43-.43-.44-5.44a5.45,5.45,0,0,0-5.87-5h0a5.46,5.46,0,0,0-5,5.88h0A5.45,5.45,0,0,0,402.81,262.43Z"/><path class="cls-2" d="M443.87,238.39l-20.64,1.66a15.32,15.32,0,0,1-16.48-14,7.27,7.27,0,0,1,14.5-1.17.76.76,0,0,0,.82.7l20.63-1.66Z"/><path class="cls-2" d="M435.58,231.76l-10.26.83a7.27,7.27,0,0,1-1.17-14.49l10.27-.83a7.27,7.27,0,1,1,1.16,14.49Z"/><path class="cls-2" d="M446,279a7.28,7.28,0,0,1-6.64,8.19L425,288.34A14.53,14.53,0,0,1,409.29,275l-1.37-17,5.43-.44h0a6.07,6.07,0,0,0,6.53,5.56l23.8-1.92Z"/><path class="cls-5" d="M434.1,361.3a8,8,0,1,0-5.43,9.92A8,8,0,0,0,434.1,361.3Z"/><path class="cls-5" d="M418.2,363.87a6,6,0,1,1-7.45-4.08A6,6,0,0,1,418.2,363.87Z"/><polygon class="cls-5" points="426.43 371.55 412.44 371.56 410.75 359.8 424.18 355.87 426.43 371.55"/><polygon class="cls-14" points="336.34 344.53 413.58 359.67 412.44 371.56 408.38 371.56 402.39 371.56 333.74 371.57 336.34 344.53"/><polygon class="cls-5" points="412.44 371.56 413.59 359.67 408.39 358.65 408.38 371.56 412.44 371.56"/><rect class="cls-14" x="364.92" y="345.53" width="11.33" height="11.33"/><polygon class="cls-2" points="1024.33 409.06 978.66 414.42 980 436.96 1025.98 436.96 1024.33 409.06"/><path class="cls-6" d="M1020.69,364.91a5,5,0,1,0,6.36-3.08A5,5,0,0,0,1020.69,364.91Z"/><path class="cls-5" d="M1011.13,371.12a6.93,6.93,0,0,0,2.27.38h0l12,.05,1.65-9.73-11.33-3.93a7,7,0,1,0-4.59,13.22Z"/><polygon class="cls-5" points="1094.22 371.52 1025.41 371.55 1024.77 361.6 1093 352.7 1094.22 371.52"/><polygon class="cls-10" points="712.25 411.57 756.19 562.98 761.24 562.98 725.31 411.57 712.25 411.57"/><polygon class="cls-10" points="666.3 411.57 622.36 562.98 617.31 562.98 653.25 411.57 666.3 411.57"/><path class="cls-4" d="M668.48,409.71a36.24,36.24,0,0,0,2.65,13.65h67.62a36.46,36.46,0,1,0-70.27-13.65Z"/><circle class="cls-13" cx="704.94" cy="409.71" r="10"/><circle class="cls-5" cx="627.59" cy="357.9" r="13.64" transform="translate(168.02 915.36) rotate(-80.19)"/><polygon class="cls-5" points="689.26 331.81 635.36 369.12 617.81 348.4 663.53 301.43 689.26 331.81"/><circle class="cls-17" cx="677.88" cy="315.36" r="20" transform="translate(226.94 911.71) rotate(-77.85)"/><path class="cls-6" d="M682.34,371.77a8,8,0,1,1,9.39,6.31A8,8,0,0,1,682.34,371.77Z"/><path class="cls-6" d="M697.65,366.73a6,6,0,1,0,4.73-7A6,6,0,0,0,697.65,366.73Z"/><polygon class="cls-6" points="693.87 377.34 706.29 370.91 702.38 359.69 688.65 362.38 693.87 377.34"/><circle class="cls-5" cx="782.25" cy="357.96" r="13.64" transform="translate(-24.7 59.82) rotate(-4.31)"/><polygon class="cls-5" points="720.61 331.8 774.47 369.16 792.04 348.46 746.38 301.44 720.61 331.8"/><polygon class="cls-17" points="720.61 331.8 765.33 362.82 784.29 340.47 746.38 301.44 720.61 331.8"/><polygon class="cls-17" points="689.26 331.81 644.5 362.79 625.57 340.42 663.52 301.43 689.26 331.81"/><circle class="cls-17" cx="732.01" cy="315.36" r="20" transform="translate(380.04 1030.49) rotate(-87.1)"/><circle class="cls-4" cx="727.09" cy="423.36" r="13.65"/><circle class="cls-4" cx="682.81" cy="423.36" r="13.65"/><path class="cls-17" d="M663.59,310.05l4.89,99.66H741.4l4.89-99.66a14,14,0,0,0-14-14.69H677.57A14,14,0,0,0,663.59,310.05Z"/><path class="cls-4" d="M668.48,409.71l.67,13.65,0,.67a13.66,13.66,0,0,0,13.64,13h44.24a13.66,13.66,0,0,0,13.64-13l0-.67.67-13.65Z"/><circle class="cls-11" cx="689.28" cy="389.97" r="74"/><path class="cls-16" d="M755.37,425.46l-1.76-.94A73,73,0,0,0,668.42,320l-.57-1.92a75,75,0,0,1,87.52,107.38Z"/><path class="cls-16" d="M701.28,343.39h-24a5,5,0,0,1-5-5h0a5,5,0,0,1,5-5h24a5,5,0,0,1,5,5h0A5,5,0,0,1,701.28,343.39Z"/><path class="cls-11" d="M856.67,511.58a14.6,14.6,0,1,1,14.6-14.6A14.62,14.62,0,0,1,856.67,511.58Zm0-27.2a12.6,12.6,0,1,0,12.6,12.6A12.62,12.62,0,0,0,856.67,484.38Z"/><rect class="cls-11" x="808.66" y="496.98" width="96" height="66"/><rect class="cls-5" x="894.67" y="496.98" width="10" height="66"/><rect class="cls-5" x="808.66" y="528.98" width="86" height="2"/><rect class="cls-16" x="844.67" y="528.98" width="14" height="9"/><rect class="cls-16" x="1071.95" y="324.53" width="2" height="24.85" transform="translate(-45.21 457.33) rotate(-23.58)"/><rect class="cls-16" x="381.96" y="327.75" width="2" height="51.82" transform="translate(-37.72 661.51) rotate(-78.92)"/><rect class="cls-10" x="404.67" y="408.31" width="2" height="36.73" transform="translate(-119.98 691.84) rotate(-73.21)"/><path class="cls-18" d="M138.61,235.7c-2.94,13.63-7.87,26.75-11.8,40.13-4,13.76-8.14,27.77-8.09,42.11A75.16,75.16,0,0,0,139,368.72c5,5.32,10.88,10,14.75,16.17s5.29,14.73,1,20.64c-6.23,8.51-19.56,6.67-28.67,12-11.47,6.7-13.07,23.77-6.53,35.33s36.33,44.65,78.83,36.45c19-3.66,44.8-21.77,44.07-41.12-.77-20.16-20-36.49-19.36-56.65.43-13.21,9.31-24.37,17-35.12s14.84-23.84,11.3-36.58c-5.21-18.74-29.34-24.53-41-40.08-7.53-10-9.19-23.18-9.65-35.7s-.15-25.35-4.33-37.16C186.23,178.24,150.28,181.65,138.61,235.7Z"/><rect class="cls-16" x="182.28" y="307.74" width="2" height="217.25"/><path class="cls-16" d="M184.27,370.51l-2-.33c3.24-19.65,25.59-31.87,26.54-32.38l.94,1.76C209.55,339.68,187.34,351.84,184.27,370.51Z"/><path class="cls-16" d="M182.29,456.06c-2.18-13.29-18-21.94-18.18-22l.95-1.76c.69.37,16.86,9.21,19.21,23.47Z"/><path class="cls-17" d="M147.11,517.49h72a0,0,0,0,1,0,0v20.75A24.75,24.75,0,0,1,194.36,563H171.86a24.75,24.75,0,0,1-24.75-24.75V517.49A0,0,0,0,1,147.11,517.49Z"/><rect class="cls-16" x="147.11" y="523.99" width="72" height="2"/><rect class="cls-10" x="28.73" y="562.98" width="1243.75" height="2"/><path class="cls-10" d="M672.28,579h0Z"/><rect class="cls-10" x="672.28" y="577.99" width="419.27" height="2"/><path class="cls-10" d="M990.31,594.22h0Z"/><rect class="cls-10" x="990.31" y="593.22" width="182.42" height="2"/><path class="cls-10" d="M600.52,594.22h0Z"/><rect class="cls-10" x="600.52" y="593.22" width="333.68" height="2"/><path class="cls-10" d="M1151.62,579.22h0Z"/><rect class="cls-10" x="1151.62" y="578.22" width="37.5" height="2"/><path class="cls-10" d="M509.5,579h0Z"/><rect class="cls-10" x="509.49" y="577.99" width="129.25" height="2"/><path class="cls-16" d="M1017.72,350.07a13.87,13.87,0,0,1-13.26-17.91h0l.31-1,5.87-15.5,1.87.71L1007,330.81h0l-.34,1.05a11.86,11.86,0,0,0,13.68,15.91l.45,2A13.4,13.4,0,0,1,1017.72,350.07Z"/><path class="cls-1" d="M867.08,83.51c-4.19-9.6-5.53-17-2.56-23,8.83-18,53.8-20.87,82.61-3.37,40.17,24.39,50.79,89.56,32.4,104C958.13,178,888.71,133.07,867.08,83.51Z"/><path class="cls-16" d="M441.26,266.39a5.5,5.5,0,0,1-11,1Z"/><path class="cls-16" d="M1032.59,268a5.5,5.5,0,0,1-11,0Z"/><rect class="cls-16" x="450.17" y="319.73" width="35.36" height="2" transform="translate(125.77 773.2) rotate(-87.34)"/><rect class="cls-16" x="770.79" y="312.94" width="28.33" height="2"/><rect class="cls-16" x="777.79" y="319.1" width="31.17" height="2"/><rect class="cls-16" x="786.7" y="325.27" width="28.09" height="2"/><rect class="cls-16" x="791.12" y="331.44" width="8" height="2"/><rect class="cls-16" x="803.95" y="331.44" width="10.83" height="2"/><rect class="cls-16" x="804.79" y="312.94" width="10" height="2"/><rect class="cls-18" x="182.28" y="490.58" width="2" height="25.9"/></g></g></svg>